HIERARCHY
ROOT Hips
{
	OFFSET 62.890800 8.863803 43.568401
	CHANNELS 6 Xposition Yposition Zposition Zrotation Xrotation Yrotation
	JOINT Chest
	{
		OFFSET -0.160400 1.630001 7.806301
		CHANNELS 6 Xposition Yposition Zposition Zrotation Xrotation Yrotation
		JOINT Chest2
		{
			OFFSET 0.000000 0.000000 3.197998
			CHANNELS 6 Xposition Yposition Zposition Zrotation Xrotation Yrotation
			JOINT Neck
			{
				OFFSET 0.000000 0.000001 7.440701
				CHANNELS 6 Xposition Yposition Zposition Zrotation Xrotation Yrotation
				JOINT Head
				{
					OFFSET 0.000000 0.000000 2.173901
					CHANNELS 6 Xposition Yposition Zposition Zrotation Xrotation Yrotation
					End Site
					{
						OFFSET 0.000000 0.000001 10.420303
					}
				}
			}
			JOINT LeftCollar
			{
				OFFSET 2.426399 -1.880099 4.759399
				CHANNELS 6 Xposition Yposition Zposition Zrotation Xrotation Yrotation
				JOINT LeftShoulder
				{
					OFFSET 4.420197 0.000000 0.000000
					CHANNELS 6 Xposition Yposition Zposition Zrotation Xrotation Yrotation
					JOINT LeftElbow
					{
						OFFSET 0.000000 -0.000001 -10.347099
						CHANNELS 6 Xposition Yposition Zposition Zrotation Xrotation Yrotation
						JOINT LeftWrist
						{
							OFFSET 0.000000 -0.000001 -12.496300
							CHANNELS 6 Xposition Yposition Zposition Zrotation Xrotation Yrotation
							End Site
							{
								OFFSET 0.000000 0.000000 -2.173901
							}
						}
					}
				}
			}
			JOINT RightCollar
			{
				OFFSET -2.781502 -1.903799 5.072601
				CHANNELS 6 Xposition Yposition Zposition Zrotation Xrotation Yrotation
				JOINT RightShoulder
				{
					OFFSET -4.012100 0.000000 0.000000
					CHANNELS 6 Xposition Yposition Zposition Zrotation Xrotation Yrotation
					JOINT RightElbow
					{
						OFFSET 0.000000 -0.000001 -10.346600
						CHANNELS 6 Xposition Yposition Zposition Zrotation Xrotation Yrotation
						JOINT RightWrist
						{
							OFFSET 0.000000 -0.000001 -12.562599
							CHANNELS 6 Xposition Yposition Zposition Zrotation Xrotation Yrotation
							End Site
							{
								OFFSET 0.000000 0.000000 -2.173901
							}
						}
					}
				}
			}
		}
	}
	JOINT LeftHip
	{
		OFFSET 2.047997 -0.047200 -2.693199
		CHANNELS 6 Xposition Yposition Zposition Zrotation Xrotation Yrotation
		JOINT LeftKnee
		{
			OFFSET 0.000000 -0.000001 -18.824400
			CHANNELS 6 Xposition Yposition Zposition Zrotation Xrotation Yrotation
			JOINT LeftAnkle
			{
				OFFSET 0.000000 -0.000002 -19.078199
				CHANNELS 6 Xposition Yposition Zposition Zrotation Xrotation Yrotation
				End Site
				{
					OFFSET 0.000000 -9.342100 0.000001
				}
			}
		}
	}
	JOINT RightHip
	{
		OFFSET -2.129898 -0.022300 -2.538300
		CHANNELS 6 Xposition Yposition Zposition Zrotation Xrotation Yrotation
		JOINT RightKnee
		{
			OFFSET 0.000000 -0.000001 -18.644600
			CHANNELS 6 Xposition Yposition Zposition Zrotation Xrotation Yrotation
			JOINT RightAnkle
			{
				OFFSET 0.000000 -0.000002 -18.801399
				CHANNELS 6 Xposition Yposition Zposition Zrotation Xrotation Yrotation
				End Site
				{
					OFFSET 0.000000 -8.914600 0.000001
				}
			}
		}
	}
}
MOTION
Frames: 7
Frame Time: 0.041667
56.401794 -43.986500 35.200756 -318.845170 10.239343 -9.754080 -0.160393 1.629997 7.806299 -40.169118 10.877348 -1.957126 0.000009 -0.000004 3.197997 31.937650 -1.356917 2.935142 -0.000003 0.000005 7.440689 -1.073350 -1.967517 3.473031 -0.000010 -0.000002 2.173910 -3.112343 -3.014284 -3.096138 2.426400 -1.880099 4.759387 15.488325 -13.965709 -1.023864 4.420192 0.000004 0.000009 -46.270235 -25.267692 -75.598863 -0.000005 0.000004 -10.347089 396.901692 -33.446583 7.966679 -0.000005 0.000001 -12.496305 166.900713 6.712285 27.043359 -2.781499 -1.903798 5.072588 7.113964 13.238022 6.493152 -4.012104 -0.000011 0.000007 41.531536 13.027222 20.541896 -0.000008 0.000002 -10.346590 -28.714392 -0.363733 -2.075401 0.000006 0.000001 -12.562601 741.628278 -185.365392 142.429361 2.047998 -0.047201 -2.693197 139.432807 9.907178 62.003009 0.000001 -0.000007 -18.824402 -48.857105 222.887255 -102.815644 0.000001 0.000003 -19.078207 106.145292 -13.359201 72.215413 -2.129898 -0.022297 -2.538307 -409.197999 -52.477351 -23.739149 -0.000001 0.000002 -18.644596 290.670885 131.482057 93.140107 0.000008 0.000000 -18.801394 -17.175957 -16.857672 -21.276883
56.933105 -43.864399 35.249641 -321.518396 10.157300 -9.606156 -0.160401 1.630001 7.806297 -37.636139 10.776453 -1.841273 0.000006 0.000002 3.197998 30.539753 -3.781684 2.969962 -0.000012 0.000003 7.440702 -2.338496 0.312809 3.037709 -0.000014 -0.000003 2.173903 -2.906807 -2.996313 -2.993053 2.426393 -1.880099 4.759399 12.562603 -12.686555 4.395243 4.420186 0.000011 -0.000007 -44.971304 -17.477274 -77.382171 -0.000011 -0.000003 -10.347086 397.446877 -32.914764 7.669808 0.000008 -0.000003 -12.496290 163.873614 13.395219 30.474071 -2.781510 -1.903799 5.072599 8.702907 14.379252 0.470964 -4.012103 -0.000004 -0.000002 36.099076 18.346877 24.944250 -0.000008 0.000001 -10.346597 -27.963923 -0.426712 -2.167745 -0.000006 0.000003 -12.562597 744.822676 -185.768564 142.039931 2.047997 -0.047199 -2.693204 141.170380 10.612844 62.423769 0.000002 0.000001 -18.824394 -56.102112 225.900461 -110.033630 -0.000002 0.000003 -19.078201 110.441509 -12.449335 74.022865 -2.129899 -0.022303 -2.538304 -408.535799 -52.236249 -23.219967 0.000003 -0.000001 -18.644598 290.966496 131.772886 93.148809 0.000000 -0.000006 -18.801397 -17.686848 -17.072111 -21.638131
57.465496 -43.745201 35.288651 -324.074499 9.995980 -9.564287 -0.160400 1.629993 7.806305 -35.236003 10.869529 -1.723367 -0.000002 0.000003 3.198001 30.211972 -5.458273 2.996725 -0.000003 0.000011 7.440701 -4.605530 1.883945 2.875185 -0.000007 0.000003 2.173902 -2.676305 -3.110671 -2.848859 2.426404 -1.880094 4.759395 10.699955 -6.743338 9.572113 4.420191 -0.000004 0.000004 -46.364851 -14.452913 -82.078738 0.000009 0.000005 -10.347083 397.630664 -32.212361 7.112192 0.000001 -0.000001 -12.496302 162.674192 16.229547 33.759361 -2.781504 -1.903793 5.072599 7.576871 12.814345 -4.057412 -4.012095 0.000002 0.000010 31.131261 23.886710 28.752801 -0.000006 0.000003 -10.346585 -27.145733 -0.478722 -2.170083 0.000003 0.000006 -12.562596 748.792655 -186.236459 141.541874 2.047993 -0.047197 -2.693192 143.180463 11.510178 62.449130 -0.000006 -0.000003 -18.824390 -65.085235 228.592211 -118.458607 0.000005 -0.000010 -19.078203 114.745990 -11.345272 75.540881 -2.129894 -0.022295 -2.538296 -407.953429 -52.074366 -22.631041 -0.000002 0.000010 -18.644602 291.243965 131.848633 93.119985 -0.000000 0.000002 -18.801407 -18.148905 -17.135010 -21.693429
57.999992 -43.626202 35.310444 -326.606587 9.867000 -9.518044 -0.160395 1.629996 7.806306 -32.852059 10.845415 -1.535847 0.000004 0.000004 3.198001 28.847915 -6.481739 2.872953 -0.000001 -0.000000 7.440716 -5.793051 2.688278 2.722093 -0.000007 -0.000006 2.173901 -2.449468 -3.118493 -2.779535 2.426407 -1.880104 4.759411 7.681111 -4.668831 12.497597 4.420189 0.000006 0.000003 -43.859233 -11.586554 -83.151044 -0.000002 0.000006 -10.347092 397.336693 -31.611321 6.710870 0.000006 -0.000005 -12.496305 161.639364 16.176811 36.561791 -2.781494 -1.903797 5.072605 6.516400 12.120071 -6.365361 -4.012099 0.000011 0.000003 28.381728 27.105628 31.791976 -0.000001 0.000000 -10.346592 -26.952347 -0.403226 -1.871662 0.000001 -0.000010 -12.562611 752.081255 -186.567177 141.106709 2.047991 -0.047201 -2.693191 145.368268 12.430008 62.292363 -0.000009 -0.000001 -18.824398 -74.644679 230.252316 -127.124915 -0.000002 -0.000001 -19.078201 118.309777 -10.273370 76.603877 -2.129900 -0.022300 -2.538298 -407.672190 -51.945805 -22.323087 -0.000000 0.000010 -18.644600 291.670825 131.729542 93.069476 -0.000002 -0.000003 -18.801405 -18.359900 -17.119963 -21.474021
58.542595 -43.504898 35.310146 -329.186049 9.746420 -9.482061 -0.160394 1.630002 7.806302 -30.427455 10.757354 -1.220749 0.000006 0.000000 3.198008 26.075285 -6.794472 2.562132 -0.000003 0.000005 7.440700 -5.505748 2.708726 2.436884 -0.000002 -0.000005 2.173903 -2.335315 -3.125352 -2.754188 2.426396 -1.880101 4.759396 7.504879 -4.348051 12.608553 4.420180 -0.000004 -0.000004 -41.760149 -10.374098 -81.149034 -0.000004 -0.000005 -10.347083 396.726402 -30.838574 6.288461 0.000002 -0.000005 -12.496314 160.234927 13.376522 40.597302 -2.781500 -1.903803 5.072606 6.155535 12.021667 -6.342937 -4.012102 -0.000004 -0.000002 27.845286 28.113347 33.160811 -0.000005 -0.000004 -10.346601 -27.182471 -0.211287 -1.295076 0.000002 -0.000004 -12.562601 754.390569 -186.973451 140.460340 2.047996 -0.047192 -2.693201 147.790076 13.389813 61.953839 -0.000000 -0.000005 -18.824408 -84.109627 230.894927 -135.364008 0.000005 0.000006 -19.078199 121.160548 -9.297821 77.618454 -2.129890 -0.022295 -2.538295 -407.626427 -51.911186 -22.271852 0.000002 -0.000006 -18.644600 292.533123 131.560099 92.868559 0.000004 0.000002 -18.801395 -18.289556 -17.020181 -21.066393
59.100098 -43.380203 35.290344 -331.692291 9.605987 -9.563809 -0.160409 1.629997 7.806305 -28.084978 10.660211 -0.843166 0.000003 0.000003 3.198002 23.577442 -6.965722 2.296837 0.000002 0.000002 7.440705 -5.444915 2.615864 2.133791 -0.000006 0.000006 2.173908 -2.235972 -3.124183 -2.669924 2.426401 -1.880102 4.759403 7.173969 -4.166501 12.676443 4.420190 0.000004 -0.000000 -39.720436 -9.135297 -79.205599 -0.000003 0.000010 -10.347107 396.304733 -30.027974 5.833929 -0.000008 0.000001 -12.496305 5.962919 -12.342110 -13.690581 -2.781501 -1.903797 5.072603 5.646915 11.884135 -6.285234 -4.012096 0.000003 0.000007 27.086580 28.917617 34.671048 -0.000005 0.000001 -10.346608 -27.340515 -0.077167 -0.657480 0.000001 -0.000008 -12.562608 757.209306 -187.220280 140.011529 2.047984 -0.047202 -2.693195 150.279243 14.383009 61.391578 0.000009 -0.000004 -18.824394 -92.752357 230.750838 -142.559804 0.000002 -0.000012 -19.078199 123.089530 -8.219240 78.070032 -2.129897 -0.022305 -2.538295 -407.879991 -52.004565 -22.365174 -0.000005 -0.000002 -18.644594 293.805177 131.481032 92.600768 -0.000008 0.000007 -18.801405 -17.940812 -16.848405 -20.596067
59.675095 -43.250004 35.252850 -334.833358 9.541440 -9.573912 -0.160397 1.630009 7.806312 -25.114469 10.620399 -0.426314 0.000007 0.000003 3.197999 21.084514 -7.140271 2.025681 -0.000007 0.000002 7.440695 -5.305297 2.515655 1.775757 -0.000006 0.000009 2.173906 -2.164398 -3.106467 -2.572864 2.426406 -1.880098 4.759393 6.981051 -4.037052 12.722096 4.420199 0.000008 -0.000006 -37.579957 -8.693546 -77.422544 -0.000017 0.000002 -10.347078 395.299439 -28.980441 5.638658 0.000012 -0.000005 -12.496308 -6.495956 -6.967406 -18.761281 -2.781504 -1.903795 5.072595 5.250355 11.737030 -6.295434 -4.012092 -0.000004 -0.000004 25.450227 29.025613 36.995375 0.000001 -0.000005 -10.346590 -26.582934 0.249775 -0.152335 0.000010 -0.000000 -12.562600 759.943950 -187.434748 139.537855 2.047996 -0.047193 -2.693189 153.491713 15.355691 60.678376 -0.000006 -0.000002 -18.824398 -100.089503 230.139044 -148.305304 -0.000001 -0.000005 -19.078196 124.369945 -7.107628 78.651336 -2.129895 -0.022291 -2.538299 -407.769451 -52.161414 -22.630321 -0.000011 -0.000000 -18.644604 295.386666 131.589400 92.304686 -0.000001 0.000003 -18.801403 -17.421746 -16.551261 -19.876996
